<svg xmlns="http://www.w3.org/2000/svg" xml:space="preserve" x="0px" y="0px" style="enable-background:new 0 0 642.1878052 549.6071167" viewBox="0 0 642.1878052 549.6071167"><path d="M337.114 429.92v34.25h-159.1v-92.8l.05-.05c41.65 40.7 102.45 50.75 159.05 58.55v.05z" style="fill:#c9caca"/><path d="M103.964 1.27c1.3 32.6 2.9 65.6 5 98.2M108.964 99.47c1.5 23.7 3.4 48.1 5.75 71.75M114.714 171.22c2.75 27.55 6.3 55.55 11.5 82.75M126.214 253.97c7.85 39.4 19.2 80.55 46.1 111.5M172.314 365.47c1.85 2.05 3.8 4 5.75 5.85 41.65 40.7 102.45 50.75 159.05 58.55 6.55.9 13.1 1.75 19.5 2.65 61.15 7 122.8 10.2 184.3 12.8M540.914 445.32c30.55 1.3 61.5 2.3 92.1 3.2M633.014 448.52l5.8.15M638.814 448.67l2.1.05" style="fill:none;stroke:#000;stroke-width:5;stroke-miterlimit:10"/><path d="M178.014 464.17v-92.8M337.114 464.17v-34.25" style="fill:none;stroke:#000;stroke-width:1.25;stroke-miterlimit:10"/><path d="M85.454 549.607V15.11" style="fill:none;stroke:#000;stroke-width:1.7;stroke-miterlimit:10"/><path d="m85.454 18.16-6.126 3.726-.138-.21 3.967-9.987c.765-3.48 1.53-6.96 2.297-10.439l2.296 10.44 3.967 9.987-.104.209-6.16-3.726z"/><path d="M0 464.154h627.575" style="fill:none;stroke:#000;stroke-width:1.7;stroke-miterlimit:10"/><path d="m624.523 464.154-3.725-6.126.21-.138 9.987 3.967c3.48.765 6.959 1.53 10.439 2.297l-10.44 2.296-9.987 3.967-.209-.104 3.725-6.16zM636.638 486.873c-.85 0-1.53-.554-1.53-1.277s.256-1.572.807-1.572c.298-.552.169-1.316-1.191-1.316s-4.08 2.593-5.947 8.074c-1.87 5.525-2.212 9.434.764 9.434 2.678 0 5.014-2.974 5.95-4.463l.976.808c-.891 1.784-4.036 5.566-6.755 5.566s-4.422-1.7-4.422-4.333c-1.018 1.911-3.95 4.292-6.926 4.25-2.295 0-3.655-1.616-3.655-3.23 0-1.785.552-2.634 1.829-2.634 1.316 0 1.953.85 1.953 1.655 0 .852-.34 1.702-1.104 1.785-.297 1.701 4.122.893 5.694-2.039 1.572-3.017 3.484-10.2 3.699-11.643.212-1.445-1.319-3.315-2.637-3.315-1.997 0-3.909 2.678-4.758 3.528l-.809-.935c1.402-1.36 3.189-4.207 5.823-4.207 2.593 0 4.334 2.974 4.165 4.885 1.23-1.316 3.611-4.885 6.67-4.885 2.976 0 3.57 2.803 3.357 4.163s-1.062 1.701-1.953 1.701zM64.7 505.38c-8.67 0-14.747-7.396-14.747-15.894 0-8.543 5.865-16.87 14.449-16.87 8.71 0 14.533 7.988 14.533 16.616 0 8.371-5.61 16.147-14.236 16.147zm.126-31.363c-6.884 0-10.283 6.758-10.283 15.298 0 8.244 3.357 14.663 10.156 14.663 5.78 0 9.773-6.419 9.773-15.088 0-8.286-2.76-14.873-9.646-14.873zM186.318 504.06h-15.342v-1.103c6.29 0 5.95-1.658 5.95-2.678v-19.207c0-1.53-.637-1.743-5.991-1.743v-.893c4.59-.51 9.221-2.72 9.221-2.72v24.648c0 .894-.127 2.635 6.162 2.635v1.062zM380.45 378.945h-15.342v-1.103c6.289 0 5.95-1.658 5.95-2.679v-19.206c0-1.53-.638-1.743-5.992-1.743v-.894c4.59-.51 9.222-2.72 9.222-2.72v24.649c0 .893-.127 2.634 6.162 2.634v1.062zM331.758 498.196c-.086.682-.596 5.357 3.696 5.357 3.271 0 6.8-3.655 8.118-5.015l.637.679c-1.446 1.997-5.782 6.12-9.732 6.12-3.781 0-5.864-3.144-5.864-6.672 0-7.395 7.478-15.215 13.13-15.215 2.21 0 3.909 1.233 3.909 3.401 0 4.973-9.859 9.986-13.894 11.345zm9.135-13.598c-3.867 0-8.542 6.8-9.052 12.368 3.103-1.191 11.73-5.142 11.73-10.156 0-.894-.64-2.212-2.678-2.212zM75.454 1.25S69.29 17.27 68.61 19.182c-.678 1.785-3.398 8.543-9.56 8.543-4.93 0-5.183-2.083-5.183-3.23 0-1.275 1.018-1.744 1.613-1.744.552 0 1.658.767 1.658 1.573 0 .935-.383 1.191-.681 1.445.085.894 2.126.894 3.486.894 3.186 0 6.29-7.522 6.8-9.266-1.319 1.446-3.018 2.466-5.357 2.466-2.336 0-5.735-1.02-3.61-5.652 2.123-4.675 3.315-7.778 3.74-8.881.424-1.148.041-3.316-1.49-1.7a912.997 912.997 0 0 1-3.484 3.738l-.722-.976c.893-1.062 3.782-5.142 6.12-5.142 1.741 0 2.762 1.997 2.124 3.696l-3.908 10.496c-1.192 3.23 3.655 4.888 6.416.298s5.652-14.49 5.652-14.49h3.23zM174.429 186.302c-1.233 0-1.531-1.148-2.933-1.148-2.932 0-4.25 4.292-5.568 9.434h5.185l-.256 1.318h-5.183s-3.909 15.51-7.054 20.992c-1.616 2.89-4.973 6.545-7.65 6.545-1.231 0-1.7-.935-1.7-2.168 0-2.124 4.463-1.103 5.398-1.658 2.634-1.572 2.847-3.017 4.758-12.324.723-3.525 3.316-11.387 3.316-11.387h-4.42l.255-1.318h4.716c1.743-5.142 5.652-12.239 10.454-12.239 1.87 0 2.422 1.319 2.422 2.251 0 .98-1.062 1.702-1.74 1.702zM180.08 200.919c-.127 12.92 6.546 19.506 7.054 20.058.427.469.044.894-.34.681-2.634-1.657-9.262-9.392-9.18-20.654.045-11.133 7.183-19.206 9.224-20.566.381-.257.764.168.425.551-3.74 4.207-7.097 10.582-7.183 19.93zM215.737 200.198c-.85 0-1.53-.554-1.53-1.276s.256-1.573.808-1.573c.297-.551.168-1.316-1.192-1.316s-4.08 2.593-5.947 8.074c-1.87 5.525-2.212 9.434.764 9.434 2.676 0 5.015-2.974 5.95-4.463l.976.808c-.89 1.785-4.035 5.566-6.755 5.566s-4.421-1.699-4.421-4.333c-1.019 1.911-3.953 4.292-6.927 4.25-2.295 0-3.655-1.616-3.655-3.23 0-1.784.552-2.634 1.83-2.634 1.315 0 1.952.85 1.952 1.655 0 .852-.34 1.702-1.103 1.785-.298 1.702 4.12.894 5.693-2.039 1.572-3.017 3.484-10.2 3.696-11.643.215-1.445-1.316-3.315-2.634-3.315-1.997 0-3.909 2.678-4.758 3.528l-.808-.935c1.403-1.36 3.188-4.207 5.822-4.207 2.593 0 4.334 2.974 4.165 4.885 1.23-1.315 3.611-4.885 6.67-4.885 2.976 0 3.57 2.803 3.357 4.163s-1.062 1.701-1.953 1.701zM224.282 221.658c-.383.213-.767-.212-.342-.68.51-.553 7.183-7.14 7.056-20.06-.085-9.347-3.442-15.722-7.183-19.929-.339-.383.044-.808.425-.551 2.041 1.36 9.18 9.433 9.221 20.566.086 11.262-6.543 18.997-9.177 20.654zM245.659 195.48h30.554v1.7H245.66v-1.7zm0 9.52h30.554v1.7H245.66V205zM291.516 202.747h-9.434c-.256 0-.383-.383-.383-.68 0-.382.212-.68.383-.68h9.349c.297 0 .468.298.468.68 0 .255-.17.68-.383.68z"/><path d="M312.637 202.747h-25.625c-.213 0-.34-.383-.34-.68 0-.382.213-.68.34-.68h25.54c.297 0 .468.298.468.68 0 .255-.171.68-.383.68zm-2.55 19.973c-.851 0-1.53-.551-1.53-1.274s.254-1.572.808-1.572c.298-.554.169-1.319-1.191-1.319s-4.08 2.593-5.95 8.074c-1.868 5.525-2.21 9.434.767 9.434 2.675 0 5.014-2.974 5.95-4.46l.976.807c-.894 1.785-4.038 5.694-6.758 5.694s-4.419-1.829-4.419-4.463c-1.02 1.914-3.953 4.421-6.926 4.377-2.295 0-3.655-1.743-3.655-3.357 0-1.784.552-2.634 1.826-2.634 1.319 0 1.956.85 1.956 1.658 0 .85-.34 1.699-1.104 1.784-.298 1.827 4.121 1.02 5.694-2.04 1.572-3.018 3.483-10.198 3.696-11.644s-1.316-3.315-2.634-3.315c-1.997 0-3.91 2.678-4.759 3.528l-.808-.935c1.402-1.36 3.186-4.207 5.823-4.207 2.59 0 4.333 2.974 4.163 4.888 1.232-1.319 3.613-4.888 6.672-4.888 2.976 0 3.57 2.805 3.357 4.165s-1.062 1.7-1.953 1.7zM309.792 192.718h-15.341v-1.147c6.289 0 5.95-1.658 5.95-2.676v-19.21c0-1.53-.638-1.742-5.992-1.742v-.892c4.59-.51 9.221-2.72 9.221-2.72v24.647c0 .893-.127 2.636 6.162 2.636v1.104z"/><path d="M321.819 202.747h-9.434c-.256 0-.383-.383-.383-.68 0-.382.212-.68.383-.68h9.348c.298 0 .469.298.469.68 0 .255-.17.68-.383.68z"/><path d="m251.286 435.496 70.723-70.723M322.009 364.773h34.589" style="fill:none;stroke:#000;stroke-width:1.25;stroke-miterlimit:10"/></svg>